<?xml version="1.0" encoding="iso-8859-1"?>
<!-- Generator: Adobe Illustrator 19.0.0, SVG Export Plug-In . SVG Version: 6.00 Build 0)  -->
<svg version="1.1" id="Capa_1" xmlns="http://www.w3.org/2000/svg" xmlns:xlink="http://www.w3.org/1999/xlink" x="0px" y="0px"
	 viewBox="0 0 469.333 469.333" style="enable-background:new 0 0 469.333 469.333;" xml:space="preserve">
<g>
	<path style="fill:#303C42;" d="M372.063,44.699c-4.813-3.469-11.469-2.385-14.896,2.375c-3.458,4.771-2.396,11.438,2.375,14.896
		C414.938,102.095,448,166.657,448,234.668s-33.063,132.573-88.458,172.698c-4.771,3.458-5.833,10.125-2.375,14.896
		c2.083,2.875,5.344,4.406,8.646,4.406c2.167,0,4.354-0.656,6.25-2.031c60.906-44.125,97.271-115.146,97.271-189.969
		S432.969,88.824,372.063,44.699z"/>
	<path style="fill:#303C42;" d="M314.01,108.303c-4.948-3.125-11.563-1.635-14.708,3.354c-3.135,4.979-1.635,11.563,3.354,14.708
		c37.573,23.646,60.01,64.135,60.01,108.302s-22.438,84.656-60.01,108.302c-4.99,3.146-6.49,9.729-3.354,14.708
		c2.031,3.229,5.5,4.99,9.042,4.99c1.938,0,3.906-0.531,5.667-1.635C357.833,333.449,384,286.22,384,234.668
		S357.833,135.887,314.01,108.303z"/>
	<path style="fill:#303C42;" d="M272.75,183.449c-4.729-3.531-11.406-2.531-14.927,2.177c-3.521,4.729-2.542,11.417,2.177,14.927
		c11.021,8.208,17.333,20.635,17.333,34.115s-6.313,25.906-17.333,34.115c-4.719,3.51-5.698,10.198-2.177,14.927
		c2.094,2.813,5.302,4.292,8.563,4.292c2.208,0,4.448-0.688,6.365-2.115c16.469-12.26,25.917-30.938,25.917-51.219
		S289.219,195.71,272.75,183.449z"/>
	<path style="fill:#303C42;" d="M206.896,43.543c-3.938-1.688-8.458-0.885-11.563,2.042L85.479,149.335H10.667
		C4.771,149.335,0,154.105,0,160.001v149.333c0,5.896,4.771,10.667,10.667,10.667h74.813l109.854,103.75
		c2.021,1.917,4.667,2.917,7.333,2.917c1.417,0,2.854-0.281,4.229-0.875c3.896-1.677,6.438-5.531,6.438-9.792V53.335
		C213.333,49.074,210.792,45.22,206.896,43.543z"/>
</g>
<path style="fill:#546E7A;" d="M192,391.251l-94.938-89.667c-1.979-1.875-4.604-2.917-7.333-2.917H21.333v-128h68.396
	c2.729,0,5.354-1.042,7.333-2.917L192,78.085V391.251z"/>
<path style="opacity:0.1;enable-background:new    ;" d="M21.333,224.001v74.667h68.396c2.729,0,5.354,1.042,7.333,2.917
	L192,391.251v-167.25H21.333z"/>
<linearGradient id="SVGID_1_" gradientUnits="userSpaceOnUse" x1="-66.0402" y1="618.8989" x2="-45.6605" y2="609.3961" gradientTransform="matrix(21.3333 0 0 -21.3333 1430.1112 13315.2227)">
	<stop  offset="0" style="stop-color:#FFFFFF;stop-opacity:0.2"/>
	<stop  offset="1" style="stop-color:#FFFFFF;stop-opacity:0"/>
</linearGradient>
<path style="fill:url(#SVGID_1_);" d="M372.063,44.699c-4.813-3.469-11.469-2.385-14.896,2.375
	c-3.458,4.771-2.396,11.438,2.375,14.896C414.938,102.095,448,166.657,448,234.668s-33.063,132.573-88.458,172.698
	c-4.771,3.458-5.833,10.125-2.375,14.896c2.083,2.875,5.344,4.406,8.646,4.406c2.167,0,4.354-0.656,6.25-2.031
	c60.906-44.125,97.271-115.146,97.271-189.969S432.969,88.824,372.063,44.699z M314.01,108.303
	c-4.948-3.125-11.563-1.635-14.708,3.354c-3.135,4.979-1.635,11.563,3.354,14.708c37.573,23.646,60.01,64.135,60.01,108.302
	s-22.438,84.656-60.01,108.302c-4.99,3.146-6.49,9.729-3.354,14.708c2.031,3.229,5.5,4.99,9.042,4.99
	c1.938,0,3.906-0.531,5.667-1.635C357.833,333.449,384,286.22,384,234.668S357.833,135.887,314.01,108.303z M272.75,183.449
	c-4.729-3.531-11.406-2.531-14.927,2.177c-3.521,4.729-2.542,11.417,2.177,14.927c11.021,8.208,17.333,20.635,17.333,34.115
	s-6.313,25.906-17.333,34.115c-4.719,3.51-5.698,10.198-2.177,14.927c2.094,2.813,5.302,4.292,8.563,4.292
	c2.208,0,4.448-0.688,6.365-2.115c16.469-12.26,25.917-30.938,25.917-51.219S289.219,195.71,272.75,183.449z M206.896,43.543
	c-3.938-1.688-8.458-0.885-11.563,2.042L85.479,149.335H10.667C4.771,149.335,0,154.105,0,160.001v149.333
	c0,5.896,4.771,10.667,10.667,10.667h74.813l109.854,103.75c2.021,1.917,4.667,2.917,7.333,2.917c1.417,0,2.854-0.281,4.229-0.875
	c3.896-1.677,6.438-5.531,6.438-9.792V53.335C213.333,49.074,210.792,45.22,206.896,43.543z"/>
<g>
</g>
<g>
</g>
<g>
</g>
<g>
</g>
<g>
</g>
<g>
</g>
<g>
</g>
<g>
</g>
<g>
</g>
<g>
</g>
<g>
</g>
<g>
</g>
<g>
</g>
<g>
</g>
<g>
</g>
</svg>
